<?xml version="1.0" encoding="utf-8"?>
<!-- Generator: Adobe Illustrator 22.1.0, SVG Export Plug-In . SVG Version: 6.00 Build 0)  -->
<svg version="1.1" id="Capa_1" xmlns="http://www.w3.org/2000/svg" xmlns:xlink="http://www.w3.org/1999/xlink" x="0px" y="0px"
	 viewBox="0 0 512 512" style="enable-background:new 0 0 512 512;" xml:space="preserve">
<style type="text/css">
	.st0{fill:#FFFFFF;}
</style>
<g>
	<path class="st0" d="M509.4,21c-2.3-2-5.5-2.5-8.3-1.2L4.4,250.6c-2.7,1.2-4.4,3.9-4.4,6.9s1.6,5.7,4.3,7l140.6,69
		c2.6,1.3,5.7,1,8-0.7l136.7-102.1L182.2,340.8c-1.5,1.6-2.3,3.7-2.1,5.9l10.7,139.1c0.2,3.1,2.3,5.7,5.2,6.7
		c0.8,0.3,1.6,0.4,2.4,0.4c2.2,0,4.3-0.9,5.8-2.7l74.6-86.5l92.2,44.1c2,1,4.3,1,6.4,0.1c2-0.9,3.6-2.6,4.2-4.7L511.6,29
		C512.6,26.1,511.7,23,509.4,21z"/>
</g>
</svg>
